<svg xmlns="http://www.w3.org/2000/svg" viewBox="0 0 720 180" role="img" aria-labelledby="title desc">
<title id="title">UpCourse Uz</title><desc id="desc">Ochiq kitob va o‘sish strelkasi tushirilgan oltin rangli ta’lim platformasi logotipi.</desc>
<g transform="translate(8 12)" fill="none" stroke="#D4AC6E" stroke-width="5" stroke-linecap="round" stroke-linejoin="round">
<path d="M8 52c22-12 44-10 66 4v70c-22-14-44-16-66-4zM156 52c-22-12-44-10-66 4v70c22-14 44-16 66-4z"/>
<path d="M23 73c17-4 31-2 42 4M23 95c17-4 31-2 42 4M91 106l27-27 17 9 31-49m-31 0h31v31"/>
</g>
<text x="205" y="89" fill="#D4AC6E" font-family="Georgia,serif" font-size="59" font-weight="700">UpCourse Uz</text>
<text x="208" y="132" fill="#E6D2A5" font-family="Arial,sans-serif" font-size="20" letter-spacing="2.5">PREMIUM TA’LIM PLATFORMASI</text>
</svg>
